# This file uses centimeters as units for non-parametric coordinates.

mtllib Roof_GRP.mtl
g default
v -0.000000 0.076783 -3.053090
v -3.023674 0.076783 -3.053066
v -0.000000 0.076783 -0.032789
v -3.023674 0.076783 -0.032766
v -0.000000 0.076783 -1.542940
v -3.023675 0.076783 -1.542916
v -0.000000 0.076783 -2.298015
v -3.023675 0.076783 -2.297991
v -0.000000 0.076783 -0.787864
v -3.023675 0.076783 -0.787841
v -0.000000 0.230062 -0.410327
v -3.023675 0.230062 -0.410303
v -0.000000 0.230062 -1.165402
v -3.023675 0.230062 -1.165379
v -0.000000 0.230062 -1.920477
v -3.023675 0.230062 -1.920454
v -0.000000 0.230062 -2.675552
v -3.023675 0.230062 -2.675529
v -0.000000 0.000000 0.000000
v -3.054615 -0.000000 0.000023
v -3.054615 -0.010999 -3.053067
v -3.054615 0.151131 -2.675529
v -3.054615 -0.000000 -1.542916
v -3.054615 0.151131 -1.165379
v -3.054615 -0.000000 -2.297992
v -3.054615 0.151131 -1.920454
v -3.054615 -0.000000 -0.771446
v -3.054615 0.151131 -0.385711
vt 0.344839 0.022314
vt 0.661733 0.035307
vt 0.661296 0.086555
vt 0.347197 0.081329
vt 0.347755 0.249729
vt 0.659861 0.254922
vt 0.659383 0.310984
vt 0.348882 0.305818
vt 0.348517 0.361893
vt 0.658905 0.367058
vt 0.658427 0.423148
vt 0.349607 0.418009
vt 0.346856 0.137460
vt 0.660817 0.142684
vt 0.660339 0.198818
vt 0.348071 0.193622
vt 0.657912 0.483608
vt 0.349490 0.478476
vt 0.335756 0.017659
vt 0.661829 0.024025
vt 0.340562 0.482805
vt 0.341768 0.417879
vt 0.339629 0.249594
vt 0.340363 0.193494
vt 0.340393 0.361758
vt 0.341162 0.305690
vt 0.338682 0.137324
vt 0.339373 0.081199
vt 0.335756 0.017659
vn 0.000003 0.926549 0.376174
vn 0.000003 0.926549 0.376174
vn 0.000000 1.000000 -0.000002
vn 0.000000 1.000000 0.000002
vn 0.000003 0.926549 0.376174
vn 0.000003 0.926549 0.376174
vn -0.000000 1.000000 -0.000002
vn -0.000000 1.000000 0.000002
vn 0.000003 0.926549 0.376174
vn 0.000003 0.926549 0.376174
vn -0.000000 1.000000 -0.000002
vn 0.000000 1.000000 0.000002
vn 0.000003 0.926549 0.376174
vn 0.000003 0.926549 0.376174
vn -0.000000 1.000000 -0.000002
vn 0.000000 1.000000 0.000002
vn -0.000003 0.926549 -0.376174
vn -0.000003 0.926549 -0.376174
vn -0.000003 0.926549 -0.376174
vn -0.000003 0.926549 -0.376174
vn -0.000003 0.926549 -0.376174
vn -0.000003 0.926549 -0.376174
vn -0.000003 0.926549 -0.376173
vn -0.000003 0.926549 -0.376174
vn 0.000007 0.392723 0.919657
vn 0.000007 0.392723 0.919657
vn 0.000007 0.392723 0.919657
vn 0.000007 0.392723 0.919657
vn -0.927750 0.344365 -0.143846
vn -0.927750 0.344365 -0.143846
vn -0.927750 0.344365 -0.143846
vn -0.927750 0.344365 -0.143846
vn -0.919176 0.365281 -0.147262
vn -0.919176 0.365281 -0.147262
vn -0.919176 0.365281 -0.147262
vn -0.919176 0.365281 -0.147262
vn -0.919176 0.365281 -0.147262
vn -0.919176 0.365281 -0.147262
vn -0.919176 0.365281 -0.147262
vn -0.919176 0.365281 -0.147262
vn -0.932538 0.335384 -0.133757
vn -0.932538 0.335384 -0.133757
vn -0.932538 0.335384 -0.133757
vn -0.932538 0.335384 -0.133757
vn -0.893871 0.416428 0.166079
vn -0.893871 0.416428 0.166079
vn -0.893871 0.416428 0.166079
vn -0.893871 0.416428 0.166079
vn -0.913373 0.378708 0.149430
vn -0.913373 0.378708 0.149430
vn -0.913373 0.378708 0.149430
vn -0.913373 0.378708 0.149430
vn -0.919177 0.365278 0.147262
vn -0.919177 0.365278 0.147262
vn -0.919177 0.365278 0.147262
vn -0.919177 0.365278 0.147262
vn -0.919176 0.365281 0.147262
vn -0.919176 0.365281 0.147262
vn -0.919176 0.365281 0.147262
vn -0.919176 0.365281 0.147262
s 1
g RoofSideEnd2 Roof_GRP
usemtl initialShadingGroup
f 4/1/1 3/2/2 11/3/3 12/4/4
s 2
f 6/5/5 5/6/6 15/7/7 16/8/8
s 3
f 8/9/9 7/10/10 17/11/11 18/12/12
s 4
f 10/13/13 9/14/14 13/15/15 14/16/16
s 1
f 12/4/4 11/3/3 9/14/17 10/13/18
s 4
f 14/16/16 13/15/15 5/6/19 6/5/20
s 2
f 16/8/8 15/7/7 7/10/21 8/9/22
s 3
f 18/12/12 17/11/11 1/17/23 2/18/24
s off
f 3/2/25 4/1/26 20/29/27 19/20/28
f 18/12/29 2/18/30 21/21/31 22/22/32
f 14/16/33 6/5/34 23/23/35 24/24/36
f 16/8/37 8/9/38 25/25/39 26/26/40
f 12/4/41 10/13/42 27/27/43 28/28/44
f 4/1/45 12/4/46 28/28/47 20/19/48
f 10/13/49 14/16/50 24/24/51 27/27/52
f 6/5/53 16/8/54 26/26/55 23/23/56
f 8/9/57 18/12/58 22/22/59 25/25/60
g default
v 0.000001 0.000000 -3.020324
v -3.023674 0.000000 -3.020301
v 0.000001 0.000000 -0.000024
v -3.023674 0.000000 -0.000000
v 0.000001 0.000000 -1.510174
v -3.023674 0.000000 -1.510151
v 0.000001 0.000000 -2.265249
v -3.023674 0.000000 -2.265226
v 0.000001 0.000000 -0.755098
v -3.023674 0.000000 -0.755075
v 0.000001 0.172184 -0.377561
v -3.023674 0.172184 -0.377538
v 0.000001 0.172184 -1.132636
v -3.023674 0.172184 -1.132613
v 0.000001 0.172184 -1.887711
v -3.023674 0.172184 -1.887688
v 0.000001 0.172184 -2.642786
v -3.023674 0.172184 -2.642763
vt 0.013454 0.015016
vt 0.330768 0.016300
vt 0.330280 0.073589
vt 0.013380 0.072312
vt 0.013157 0.244201
vt 0.328242 0.245447
vt 0.328327 0.302745
vt 0.013083 0.301497
vt 0.013009 0.358793
vt 0.327838 0.360035
vt 0.327350 0.417324
vt 0.012935 0.416089
vt 0.013306 0.129608
vt 0.329791 0.130878
vt 0.329303 0.188167
vt 0.013232 0.186905
vt 0.326862 0.474613
vt 0.012861 0.473385
vn 0.000003 0.909843 0.414953
vn 0.000003 0.909843 0.414953
vn -0.000000 1.000000 -0.000002
vn -0.000000 1.000000 0.000002
vn 0.000003 0.909843 0.414953
vn 0.000003 0.909843 0.414953
vn -0.000000 1.000000 -0.000002
vn -0.000000 1.000000 0.000002
vn 0.000003 0.909843 0.414953
vn 0.000003 0.909843 0.414953
vn 0.000000 1.000000 -0.000002
vn 0.000000 1.000000 0.000002
vn 0.000003 0.909843 0.414952
vn 0.000003 0.909843 0.414952
vn -0.000000 1.000000 -0.000002
vn -0.000000 1.000000 0.000002
vn -0.000003 0.909843 -0.414953
vn -0.000003 0.909843 -0.414953
vn -0.000003 0.909843 -0.414952
vn -0.000003 0.909843 -0.414953
vn -0.000003 0.909843 -0.414952
vn -0.000003 0.909843 -0.414952
vn -0.000003 0.909843 -0.414952
vn -0.000003 0.909843 -0.414952
s 1
g Roof_GRP RoofMidMid
usemtl initialShadingGroup
f 32/30/61 31/31/62 39/32/63 40/33/64
s 2
f 34/34/65 33/35/66 43/36/67 44/37/68
s 3
f 36/38/69 35/39/70 45/40/71 46/41/72
s 4
f 38/42/73 37/43/74 41/44/75 42/45/76
s 1
f 40/33/64 39/32/63 37/43/77 38/42/78
s 4
f 42/45/76 41/44/75 33/35/79 34/34/80
s 2
f 44/37/68 43/36/67 35/39/81 36/38/82
s 3
f 46/41/72 45/40/71 29/46/83 30/47/84
g default
v -2.018839 0.830429 0.000000
v -0.008852 0.112372 0.000000
v -2.018839 0.830429 -3.020300
v -0.008852 0.112372 -3.020300
v -2.018839 0.830429 -1.510150
v -0.008852 0.092799 -1.510150
v -2.018839 0.830429 -0.755075
v -0.008852 0.092799 -0.755075
v -2.018839 0.830429 -2.265225
v -0.008852 0.092799 -2.265225
v -2.018839 0.983707 -2.642762
v 0.032219 0.246077 -2.642762
v -2.018839 0.983707 -1.887687
v 0.032219 0.246077 -1.887687
v -2.018839 0.983707 -1.132612
v 0.032219 0.246077 -1.132612
v -2.018839 0.983707 -0.377537
v 0.032219 0.246077 -0.377537
v -0.001686 -0.000000 -3.020300
v -0.001686 -0.000000 0.000001
v 0.040277 0.156605 -0.377537
v -0.001686 -0.000000 -1.510150
v 0.040277 0.156605 -1.887687
v -0.001686 -0.000000 -0.755074
v 0.040277 0.156605 -1.132612
v -0.001686 -0.000000 -2.265225
v 0.040277 0.156605 -2.642762
vt 0.358219 0.527943
vt 0.653090 0.533252
vt 0.661437 0.589280
vt 0.359285 0.583143
vt 0.354095 0.751263
vt 0.651186 0.756662
vt 0.659533 0.812668
vt 0.356902 0.807380
vt 0.353029 0.863378
vt 0.650234 0.868368
vt 0.658581 0.924361
vt 0.355897 0.919509
vt 0.355287 0.639150
vt 0.652138 0.644957
vt 0.660485 0.700973
vt 0.358031 0.695268
vt 0.649282 0.980074
vt 0.353720 0.974651
vt 0.338674 0.978802
vt 0.344460 0.919147
vt 0.341619 0.751036
vt 0.346848 0.695059
vt 0.340557 0.863139
vt 0.345719 0.807183
vt 0.342815 0.638935
vt 0.347845 0.583090
vt 0.343262 0.523247
vn 0.315826 0.881086 -0.352054
vn 0.315826 0.881086 -0.352054
vn 0.339411 0.940558 0.012314
vn 0.339412 0.940530 0.014248
vn 0.317001 0.872629 -0.371524
vn 0.317001 0.872629 -0.371524
vn 0.341440 0.939904 -0.000000
vn 0.341440 0.939904 -0.000000
vn 0.317001 0.872629 -0.371524
vn 0.317001 0.872629 -0.371524
vn 0.339411 0.940558 -0.012314
vn 0.339412 0.940530 -0.014248
vn 0.317001 0.872629 -0.371524
vn 0.317001 0.872629 -0.371524
vn 0.341440 0.939904 0.000000
vn 0.341440 0.939904 0.000000
vn 0.317001 0.872629 0.371524
vn 0.317001 0.872629 0.371524
vn 0.317001 0.872629 0.371524
vn 0.317001 0.872629 0.371524
vn 0.317001 0.872629 0.371524
vn 0.317001 0.872629 0.371524
vn 0.315826 0.881086 0.352054
vn 0.315826 0.881086 0.352054
vn 0.987729 0.074501 0.137261
vn 0.987729 0.074501 0.137261
vn 0.987729 0.074501 0.137261
vn 0.987729 0.074501 0.137261
vn 0.986391 0.082389 0.142282
vn 0.986391 0.082389 0.142282
vn 0.986391 0.082389 0.142282
vn 0.986391 0.082389 0.142282
vn 0.986391 0.082389 0.142282
vn 0.986391 0.082389 0.142282
vn 0.986391 0.082389 0.142282
vn 0.986391 0.082389 0.142282
vn 0.986391 0.082389 0.142282
vn 0.986391 0.082389 0.142282
vn 0.986391 0.082389 0.142282
vn 0.986391 0.082389 0.142282
vn 0.987729 0.074501 -0.137261
vn 0.987729 0.074501 -0.137261
vn 0.987729 0.074501 -0.137261
vn 0.987729 0.074501 -0.137261
vn 0.986391 0.082389 -0.142282
vn 0.986391 0.082389 -0.142282
vn 0.986391 0.082389 -0.142282
vn 0.986391 0.082389 -0.142282
vn 0.986391 0.082389 -0.142282
vn 0.986391 0.082389 -0.142282
vn 0.986391 0.082389 -0.142282
vn 0.986391 0.082389 -0.142282
vn 0.986391 0.082388 -0.142282
vn 0.986391 0.082388 -0.142282
vn 0.986391 0.082388 -0.142282
vn 0.986391 0.082388 -0.142282
s 1
g Roof_GRP RoofMidEnd1
usemtl initialShadingGroup
f 50/48/85 49/49/86 57/50/87 58/51/88
s 2
f 52/52/89 51/53/90 61/54/91 62/55/92
s 3
f 54/56/93 53/57/94 63/58/95 64/59/96
s 4
f 56/60/97 55/61/98 59/62/99 60/63/100
s 1
f 58/51/88 57/50/87 55/61/101 56/60/102
s 4
f 60/63/100 59/62/99 51/53/103 52/52/104
s 2
f 62/55/92 61/54/91 53/57/105 54/56/106
s 3
f 64/59/96 63/58/95 47/64/107 48/65/108
s off
f 64/59/109 48/65/110 66/66/111 67/67/112
f 60/63/113 52/52/114 68/68/115 69/69/116
f 62/55/117 54/56/118 70/70/119 71/71/120
f 58/51/121 56/60/122 72/72/123 73/73/124
f 50/48/125 58/51/126 73/73/127 65/74/128
f 56/60/129 60/63/130 69/69/131 72/72/132
f 52/52/133 62/55/134 71/71/135 68/68/136
f 54/56/137 64/59/138 67/67/139 70/70/140
g default
v -0.000000 0.076783 -3.053090
v -3.023673 0.076783 -3.053090
v -0.000000 0.076783 -0.032789
v -3.023673 0.076783 -0.032789
v -0.000000 0.076783 -1.542940
v -3.023673 0.076783 -1.542940
v -0.000000 0.076783 -2.298015
v -3.023673 0.076783 -2.298015
v -0.000000 0.076783 -0.787864
v -3.023673 0.076783 -0.787864
v -0.000000 0.230062 -0.410327
v -3.023673 0.230062 -0.410327
v -0.000000 0.230062 -1.165402
v -3.023673 0.230062 -1.165402
v -0.000000 0.230062 -1.920477
v -3.023673 0.230062 -1.920477
v -0.000000 0.230062 -2.675552
v -3.023673 0.230062 -2.675552
v -0.000000 0.000000 0.000000
v -3.023673 -0.000000 0.000000
vt 0.019513 0.527207
vt 0.333972 0.525095
vt 0.333529 0.577135
vt 0.019879 0.571916
vt 0.020685 0.740319
vt 0.332094 0.745501
vt 0.331616 0.801564
vt 0.020954 0.796395
vt 0.021223 0.852480
vt 0.331138 0.857637
vt 0.330660 0.913727
vt 0.021492 0.908583
vt 0.020148 0.628056
vt 0.333051 0.633263
vt 0.332572 0.689397
vt 0.020416 0.684203
vt 0.330145 0.974187
vt 0.021723 0.969055
vt 0.019457 0.515889
vt 0.334069 0.513780
vn 0.000000 0.926549 0.376174
vn 0.000000 0.926549 0.376174
vn 0.000000 1.000000 0.000000
vn 0.000000 1.000000 0.000000
vn 0.000000 0.926549 0.376174
vn 0.000000 0.926549 0.376174
vn 0.000000 1.000000 -0.000000
vn 0.000000 1.000000 -0.000000
vn 0.000000 0.926549 0.376174
vn 0.000000 0.926549 0.376174
vn 0.000000 1.000000 0.000000
vn 0.000000 1.000000 0.000000
vn 0.000000 0.926549 0.376174
vn 0.000000 0.926549 0.376173
vn 0.000000 1.000000 0.000000
vn 0.000000 1.000000 0.000000
vn 0.000000 0.926549 -0.376174
vn 0.000000 0.926549 -0.376174
vn 0.000000 0.926549 -0.376174
vn 0.000000 0.926549 -0.376174
vn 0.000000 0.926549 -0.376174
vn 0.000000 0.926549 -0.376174
vn 0.000000 0.926549 -0.376174
vn 0.000000 0.926549 -0.376174
vn -0.000000 0.392724 0.919656
vn -0.000000 0.392724 0.919656
vn -0.000000 0.392724 0.919656
vn -0.000000 0.392724 0.919656
s 1
g Roof_GRP RoofSideMid
usemtl initialShadingGroup
f 77/75/141 76/76/142 84/77/143 85/78/144
s 2
f 79/79/145 78/80/146 88/81/147 89/82/148
s 3
f 81/83/149 80/84/150 90/85/151 91/86/152
s 4
f 83/87/153 82/88/154 86/89/155 87/90/156
s 1
f 85/78/144 84/77/143 82/88/157 83/87/158
s 4
f 87/90/156 86/89/155 78/80/159 79/79/160
s 2
f 89/82/148 88/81/147 80/84/161 81/83/162
s 3
f 91/86/152 90/85/151 74/91/163 75/92/164
s off
f 76/76/165 77/75/166 93/93/167 92/94/168
g default
v -2.017154 0.830429 -0.032789
v -0.007166 0.112372 -0.032789
v -2.017154 0.830429 -3.053090
v -0.007166 0.112372 -3.053090
v -2.017154 0.830429 -1.542940
v -0.007166 0.092799 -1.542940
v -2.017154 0.830429 -0.787864
v -0.007166 0.092799 -0.787864
v -2.017154 0.830429 -2.298015
v -0.007166 0.092799 -2.298015
v -2.017154 0.983707 -2.675552
v 0.033904 0.246077 -2.675552
v -2.017154 0.983707 -1.920477
v 0.033904 0.246077 -1.920477
v -2.017154 0.983707 -1.165402
v 0.033904 0.246077 -1.165402
v -2.017154 0.983707 -0.410327
v 0.033904 0.246077 -0.410327
v -2.017154 0.753646 -3.053090
v 0.000000 0.000000 -3.053090
v 0.000000 0.000000 0.000000
v 0.041962 0.156606 -0.410327
v -2.017154 0.753646 0.000000
v 0.000000 0.000000 -1.542940
v 0.041962 0.156606 -1.920477
v 0.000000 0.000000 -0.787864
v 0.041962 0.156606 -1.165402
v 0.000000 0.000000 -2.298015
v 0.041962 0.156606 -2.675552
vt 0.686572 0.022440
vt 0.990570 0.028199
vt 0.998901 0.086043
vt 0.687614 0.079431
vt 0.682089 0.252990
vt 0.988604 0.258846
vt 0.996936 0.316668
vt 0.684933 0.310927
vt 0.680882 0.368736
vt 0.987621 0.374170
vt 0.995953 0.431979
vt 0.683791 0.426688
vt 0.683429 0.137247
vt 0.989587 0.143521
vt 0.997918 0.201354
vt 0.686207 0.195186
vt 0.986639 0.489494
vt 0.681497 0.483619
vt 0.671135 0.017577
vt 0.989205 0.017862
vt 0.674930 0.498953
vt 0.671983 0.426299
vt 0.983889 0.500755
vt 0.669208 0.252744
vt 0.674662 0.194959
vt 0.668006 0.368478
vt 0.673388 0.310714
vt 0.670554 0.137013
vt 0.675803 0.079363
vt 0.667241 0.492647
vt 0.680340 0.007584
vn 0.315826 0.881086 -0.352054
vn 0.315826 0.881086 -0.352054
vn 0.339411 0.940558 0.012314
vn 0.339412 0.940530 0.014248
vn 0.317001 0.872629 -0.371524
vn 0.317001 0.872629 -0.371524
vn 0.341440 0.939904 0.000000
vn 0.341440 0.939904 0.000000
vn 0.317001 0.872629 -0.371524
vn 0.317001 0.872629 -0.371524
vn 0.339411 0.940558 -0.012314
vn 0.339412 0.940530 -0.014248
vn 0.317001 0.872629 -0.371524
vn 0.317001 0.872629 -0.371524
vn 0.341440 0.939904 -0.000000
vn 0.341440 0.939904 0.000000
vn 0.317001 0.872629 0.371524
vn 0.317001 0.872629 0.371524
vn 0.317001 0.872629 0.371524
vn 0.317001 0.872629 0.371524
vn 0.317001 0.872629 0.371524
vn 0.317001 0.872629 0.371524
vn 0.315826 0.881086 0.352054
vn 0.315826 0.881086 0.352054
vn 0.000002 0.000004 -1.000000
vn 0.000002 0.000004 -1.000000
vn 0.000002 0.000004 -1.000000
vn 0.000002 0.000004 -1.000000
vn 0.985445 0.097006 0.139600
vn 0.985445 0.097006 0.139600
vn 0.985445 0.097006 0.139600
vn 0.985445 0.097006 0.139600
vn 0.120323 0.329250 0.936545
vn 0.120323 0.329250 0.936545
vn 0.120323 0.329250 0.936545
vn 0.120323 0.329250 0.936545
vn 0.986391 0.082389 0.142282
vn 0.986391 0.082389 0.142282
vn 0.986391 0.082389 0.142282
vn 0.986391 0.082389 0.142282
vn 0.986391 0.082389 0.142282
vn 0.986391 0.082389 0.142282
vn 0.986391 0.082389 0.142282
vn 0.986391 0.082389 0.142282
vn 0.986391 0.082388 0.142282
vn 0.986391 0.082388 0.142282
vn 0.986391 0.082388 0.142282
vn 0.986391 0.082388 0.142282
vn 0.987729 0.074501 -0.137261
vn 0.987729 0.074501 -0.137261
vn 0.987729 0.074501 -0.137261
vn 0.987729 0.074501 -0.137261
vn 0.986391 0.082389 -0.142282
vn 0.986391 0.082389 -0.142282
vn 0.986391 0.082389 -0.142282
vn 0.986391 0.082389 -0.142282
vn 0.986391 0.082389 -0.142282
vn 0.986391 0.082389 -0.142282
vn 0.986391 0.082389 -0.142282
vn 0.986391 0.082389 -0.142282
vn 0.986391 0.082388 -0.142282
vn 0.986391 0.082388 -0.142282
vn 0.986391 0.082388 -0.142282
vn 0.986391 0.082388 -0.142282
s 1
g Roof_GRP RoofSideEnd1
usemtl initialShadingGroup
f 97/95/169 96/96/170 104/97/171 105/98/172
s 2
f 99/99/173 98/100/174 108/101/175 109/102/176
s 3
f 101/103/177 100/104/178 110/105/179 111/106/180
s 4
f 103/107/181 102/108/182 106/109/183 107/110/184
s 1
f 105/98/172 104/97/171 102/108/185 103/107/186
s 4
f 107/110/184 106/109/183 98/100/187 99/99/188
s 2
f 109/102/176 108/101/175 100/104/189 101/103/190
s 3
f 111/106/180 110/105/179 94/111/191 95/112/192
s off
f 96/96/193 97/95/194 113/125/195 112/114/196
f 111/106/197 95/112/198 114/124/199 115/116/200
f 95/112/201 94/111/202 116/117/203 114/115/204
f 107/110/205 99/99/206 117/118/207 118/119/208
f 109/102/209 101/103/210 119/120/211 120/121/212
f 105/98/213 103/107/214 121/122/215 122/123/216
f 97/95/217 105/98/218 122/123/219 113/113/220
f 103/107/221 107/110/222 118/119/223 121/122/224
f 99/99/225 109/102/226 120/121/227 117/118/228
f 101/103/229 111/106/230 115/116/231 119/120/232
g default
v 0.000000 0.000000 -3.020300
v -3.023674 0.000000 -3.020300
v 0.000000 0.000000 0.000000
v -3.023674 0.000000 0.000023
v 0.000000 0.000000 -1.510150
v -3.023675 0.000000 -1.510127
v 0.000000 0.000000 -2.265226
v -3.023675 0.000000 -2.265202
v 0.000000 0.000000 -0.755075
v -3.023675 0.000000 -0.755052
v 0.000000 0.172184 -0.377538
v -3.023675 0.172184 -0.377514
v 0.000000 0.172184 -1.132613
v -3.023675 0.172184 -1.132589
v 0.000000 0.172184 -1.887688
v -3.023675 0.172184 -1.887664
v 0.000000 0.172184 -2.642763
v -3.023675 0.172184 -2.642739
v -3.054615 -0.087782 0.000024
v -3.054615 -0.087782 -3.020329
v -3.054615 0.093253 -2.642740
v -3.054615 -0.087782 -1.510127
v -3.054615 0.093253 -1.132589
v -3.054615 -0.087782 -2.265202
v -3.054615 0.093253 -1.887664
v -3.054615 -0.087782 -0.738657
v -3.054615 0.093253 -0.377514
vt 0.676076 0.512893
vt 0.993134 0.506618
vt 0.992533 0.577135
vt 0.677218 0.571888
vt 0.678248 0.740296
vt 0.991098 0.745501
vt 0.990620 0.801564
vt 0.679711 0.796390
vt 0.679347 0.852466
vt 0.990142 0.857637
vt 0.989664 0.913727
vt 0.680755 0.908587
vt 0.676971 0.628020
vt 0.992054 0.633263
vt 0.991576 0.689397
vt 0.678544 0.684188
vt 0.989149 0.974187
vt 0.680727 0.969055
vt 0.671742 0.974008
vt 0.672924 0.908457
vt 0.669065 0.740143
vt 0.670876 0.684061
vt 0.670167 0.852313
vt 0.672031 0.796263
vt 0.667756 0.627867
vt 0.669392 0.571758
vt 0.666993 0.508238
vn 0.000003 0.909843 0.414953
vn 0.000003 0.909843 0.414953
vn -0.000000 1.000000 -0.000002
vn 0.000000 1.000000 0.000002
vn 0.000003 0.909843 0.414953
vn 0.000003 0.909843 0.414953
vn -0.000000 1.000000 -0.000002
vn 0.000000 1.000000 0.000002
vn 0.000003 0.909843 0.414954
vn 0.000003 0.909843 0.414954
vn 0.000001 1.000000 -0.000002
vn 0.000001 1.000000 0.000002
vn 0.000003 0.909843 0.414953
vn 0.000003 0.909843 0.414953
vn 0.000000 1.000000 -0.000002
vn 0.000000 1.000000 0.000002
vn -0.000003 0.909843 -0.414953
vn -0.000003 0.909843 -0.414953
vn -0.000003 0.909843 -0.414953
vn -0.000003 0.909843 -0.414953
vn -0.000003 0.909843 -0.414953
vn -0.000003 0.909843 -0.414953
vn -0.000002 0.909848 -0.414942
vn -0.000002 0.909848 -0.414942
vn -0.925313 0.343486 -0.160664
vn -0.925313 0.343486 -0.160664
vn -0.925313 0.343486 -0.160664
vn -0.925313 0.343486 -0.160664
vn -0.925321 0.343463 -0.160668
vn -0.925321 0.343463 -0.160668
vn -0.925321 0.343463 -0.160668
vn -0.925321 0.343463 -0.160668
vn -0.925321 0.343463 -0.160668
vn -0.925321 0.343463 -0.160668
vn -0.925321 0.343463 -0.160668
vn -0.925321 0.343463 -0.160668
vn -0.930720 0.329950 -0.157773
vn -0.930720 0.329950 -0.157773
vn -0.930720 0.329950 -0.157773
vn -0.930720 0.329950 -0.157773
vn -0.925320 0.343466 0.160669
vn -0.925320 0.343466 0.160669
vn -0.925320 0.343466 0.160669
vn -0.925320 0.343466 0.160669
vn -0.919507 0.357393 0.163634
vn -0.919508 0.357393 0.163634
vn -0.919508 0.357393 0.163634
vn -0.919508 0.357393 0.163634
vn -0.925322 0.343460 0.160668
vn -0.925322 0.343460 0.160668
vn -0.925322 0.343460 0.160668
vn -0.925322 0.343460 0.160668
vn -0.925321 0.343463 0.160668
vn -0.925321 0.343463 0.160668
vn -0.925321 0.343463 0.160668
vn -0.925321 0.343463 0.160668
s 1
g Roof_GRP RoofMidEnd2
usemtl initialShadingGroup
f 126/126/233 125/127/234 133/128/235 134/129/236
s 2
f 128/130/237 127/131/238 137/132/239 138/133/240
s 3
f 130/134/241 129/135/242 139/136/243 140/137/244
s 4
f 132/138/245 131/139/246 135/140/247 136/141/248
s 1
f 134/129/236 133/128/235 131/139/249 132/138/250
s 4
f 136/141/248 135/140/247 127/131/251 128/130/252
s 2
f 138/133/240 137/132/239 129/135/253 130/134/254
s 3
f 140/137/244 139/136/243 123/142/255 124/143/256
s off
f 140/137/257 124/143/258 142/144/259 143/145/260
f 136/141/261 128/130/262 144/146/263 145/147/264
f 138/133/265 130/134/266 146/148/267 147/149/268
f 134/129/269 132/138/270 148/150/271 149/151/272
f 126/126/273 134/129/274 149/151/275 141/152/276
f 132/138/277 136/141/278 145/147/279 148/150/280
f 128/130/281 138/133/282 147/149/283 144/146/284
f 130/134/285 140/137/286 143/145/287 146/148/288
