# This file uses centimeters as units for non-parametric coordinates.

mtllib Bot_Dumpster2.mtl
g default
v -19.296093 15.947756 18.903015
v -16.257555 13.938212 18.903015
v -16.257555 15.947756 21.941587
v -16.257555 20.799229 23.200203
v -19.296093 20.799229 21.941587
v -20.554729 20.799229 18.903015
v 317.989471 15.947756 18.903015
v 319.248108 20.799229 18.903015
v 317.989471 20.799229 21.941587
v 314.950928 20.799229 23.200203
v 314.950928 15.947756 21.941587
v 314.950928 13.938212 18.903015
v -19.296093 149.162766 18.903015
v -20.554729 144.311234 18.903015
v -19.296093 144.311234 21.941587
v -16.257555 144.311234 23.200203
v -16.257555 149.162766 21.941587
v -16.257555 151.172287 18.903015
v 317.989471 149.162766 18.903015
v 314.950928 151.172287 18.903015
v 314.950928 149.162766 21.941587
v 314.950928 144.311234 23.200203
v 317.989471 144.311234 21.941587
v 319.248108 144.311234 18.903015
v -19.296093 144.311234 -200.143295
v -20.554729 144.311234 -197.104752
v -19.296093 149.162766 -197.104752
v -16.257555 151.172287 -197.104752
v -16.257555 149.162766 -200.143295
v -16.257555 144.311234 -201.401947
v 317.989471 144.311234 -200.143295
v 314.950928 144.311234 -201.401947
v 314.950928 149.162766 -200.143295
v 314.950928 151.172287 -197.104752
v 317.989471 149.162766 -197.104752
v 319.248108 144.311234 -197.104752
v -19.296093 15.947756 -197.104752
v -20.554729 20.799229 -197.104752
v -19.296093 20.799229 -200.143295
v -16.257555 20.799229 -201.401947
v -16.257555 15.947756 -200.143295
v -16.257555 13.938212 -197.104752
v 317.989471 15.947756 -197.104752
v 314.950928 13.938212 -197.104752
v 314.950928 15.947756 -200.143295
v 314.950928 20.799229 -201.401947
v 317.989471 20.799229 -200.143295
v 319.248108 20.799229 -197.104752
v -18.737677 16.839401 21.383148
v 317.431030 16.839401 21.383148
v -18.737677 148.271088 21.383148
v 317.431030 148.271088 21.383148
v -18.737677 148.271088 -199.584900
v 317.431030 148.271088 -199.584900
v -18.737677 16.839401 -199.584900
v 317.431030 16.839401 -199.584900
v 311.213654 25.403732 16.465662
v -12.520291 25.403732 16.465662
v 311.213654 25.403732 -194.667389
v -12.520291 25.403732 -194.667389
vt 0.003756 0.248423
vt 0.002973 0.248797
vt 0.002973 0.188513
vt 0.003756 0.188888
vt 0.002163 0.001992
vt 0.001788 0.005087
vt 0.888578 0.007005
vt 0.888203 0.003910
vt 0.003756 0.005087
vt 0.003600 0.001992
vt 0.064249 0.001992
vt 0.064094 0.005087
vt 0.003600 0.249607
vt 0.064094 0.248423
vt 0.064249 0.249607
vt 0.002912 0.005081
vt 0.002912 0.060807
vt 0.001788 0.060801
vt 0.003755 0.060801
vt 0.066061 0.005087
vt 0.065686 0.001992
vt 0.895117 0.002073
vt 0.894742 0.005168
vt 0.064877 0.248797
vt 0.064094 0.188888
vt 0.064877 0.188513
vt 0.064937 0.005081
vt 0.064937 0.060807
vt 0.064094 0.060801
vt 0.066061 0.060801
vt 0.002163 0.063896
vt 0.888203 0.065814
vt 0.888577 0.062719
vt 0.002973 0.064705
vt 0.003756 0.065080
vt 0.003756 0.124615
vt 0.002973 0.124990
vt 0.003740 0.063604
vt 0.064109 0.063604
vt 0.064094 0.065080
vt 0.064877 0.064705
vt 0.064877 0.124990
vt 0.064094 0.124615
vt 0.065686 0.063896
vt 0.894742 0.060882
vt 0.895117 0.063977
vt 0.887393 0.063940
vt 0.887393 0.005785
vt 0.002973 0.127674
vt 0.003756 0.128894
vt 0.003756 0.184609
vt 0.002973 0.185829
vt 0.003740 0.126092
vt 0.064109 0.126092
vt 0.064094 0.128894
vt 0.064877 0.127674
vt 0.064877 0.185829
vt 0.064094 0.184609
vt 0.895927 0.062103
vt 0.895927 0.003948
vt 0.003740 0.187411
vt 0.064109 0.187411
vt 0.560347 0.002844
vt 0.563734 0.002844
vt 0.563735 0.250459
vt 0.560347 0.250459
vt 0.002973 0.001992
vt 0.002973 0.249607
vt 0.064877 0.249607
vt 0.064877 0.001992
vt 0.002973 0.063896
vt 0.064877 0.063896
vt 0.002973 0.125800
vt 0.887393 0.065814
vt 0.895927 0.063977
vt 0.064877 0.125800
vt 0.002973 0.187703
vt 0.887393 0.003910
vt 0.895927 0.002073
vt 0.064877 0.187703
vt 0.330372 0.250616
vt 0.321489 0.250616
vt 0.321489 0.003001
vt 0.330372 0.003001
vt 0.800910 0.502751
vt 0.792027 0.502751
vt 0.792027 0.255136
vt 0.800910 0.255136
vt 0.556540 0.003001
vt 0.556540 0.250616
vt 0.565859 0.502751
vt 0.565859 0.255136
vt 0.007300 0.503280
vt 0.007300 0.255665
vt 0.237600 0.258459
vt 0.237600 0.500486
vt 0.880676 0.507944
vt 0.880676 0.755559
vt 0.650376 0.752765
vt 0.650376 0.510738
vt 0.317381 0.251029
vt 0.308497 0.251029
vt 0.308497 0.003414
vt 0.317381 0.003414
vt 0.326698 0.503805
vt 0.317814 0.503805
vt 0.317814 0.256190
vt 0.326698 0.256190
vt 0.082329 0.251029
vt 0.073445 0.251029
vt 0.073445 0.003414
vt 0.082329 0.003414
vt 0.561749 0.503805
vt 0.552866 0.503805
vt 0.552866 0.256190
vt 0.561749 0.256190
vt 0.001788 0.752249
vt 0.001788 0.504634
vt 0.232088 0.507428
vt 0.232088 0.749455
vt 0.469107 0.509414
vt 0.469107 0.757029
vt 0.238807 0.754235
vt 0.238807 0.512208
vt 0.817287 0.250400
vt 0.813899 0.250400
vt 0.813899 0.002785
vt 0.817287 0.002785
vt 0.826474 0.250655
vt 0.823086 0.250655
vt 0.823086 0.003040
vt 0.826474 0.003040
vt 0.804574 0.002844
vt 0.807962 0.002844
vt 0.807962 0.250459
vt 0.804574 0.250459
vt 0.473990 0.998008
vt 0.473990 0.755981
vt 0.709395 0.755981
vt 0.709395 0.998008
vn -0.005977 -0.999940 0.009139
vn -0.551112 -0.834413 0.005574
vn -0.551112 -0.834413 -0.005574
vn -0.005977 -0.999940 -0.009139
vn -0.968017 -0.250863 0.003336
vn -0.999936 -0.009762 0.005676
vn -0.999936 -0.009762 -0.005676
vn -0.968017 -0.250863 -0.003336
vn -0.003720 -0.009777 0.999945
vn -0.002183 -0.250949 0.967998
vn 0.002183 -0.250949 0.967998
vn 0.003720 -0.009777 0.999945
vn -0.003649 -0.834307 0.551288
vn 0.005977 -0.999940 0.009139
vn 0.003649 -0.834307 0.551288
vn -0.924322 -0.006283 0.381561
vn -0.924322 0.006283 0.381561
vn -0.999936 0.009762 0.005676
vn -0.381559 -0.006283 0.924323
vn -0.003720 0.009777 0.999945
vn -0.381559 0.006283 0.924323
vn 0.999936 -0.009762 0.005676
vn 0.968017 -0.250863 0.003336
vn 0.968017 -0.250863 -0.003336
vn 0.999936 -0.009762 -0.005676
vn 0.551110 -0.834414 0.005574
vn 0.005977 -0.999940 -0.009139
vn 0.551110 -0.834414 -0.005574
vn 0.381559 -0.006283 0.924323
vn 0.381559 0.006283 0.924323
vn 0.003720 0.009777 0.999945
vn 0.924322 -0.006283 0.381561
vn 0.999936 0.009762 0.005676
vn 0.924322 0.006283 0.381561
vn -0.968018 0.250861 0.003336
vn -0.968018 0.250861 -0.003336
vn -0.999936 0.009762 -0.005676
vn -0.551108 0.834416 0.005574
vn -0.236492 0.901843 0.361596
vn -0.236493 0.901842 -0.361598
vn -0.551108 0.834416 -0.005574
vn -0.003649 0.834310 0.551283
vn 0.003649 0.834310 0.551283
vn 0.236491 0.901843 0.361596
vn -0.002183 0.250945 0.967999
vn 0.002183 0.250945 0.967999
vn 0.551106 0.834417 0.005574
vn 0.551106 0.834417 -0.005574
vn 0.236492 0.901842 -0.361597
vn 0.968018 0.250860 0.003336
vn 0.999936 0.009762 -0.005676
vn 0.968018 0.250860 -0.003336
vn -0.924321 0.006283 -0.381565
vn -0.924321 -0.006283 -0.381565
vn -0.381569 0.006283 -0.924319
vn -0.003720 0.009777 -0.999945
vn -0.003720 -0.009777 -0.999945
vn -0.381569 -0.006283 -0.924319
vn -0.002183 0.250952 -0.967997
vn 0.002183 0.250952 -0.967997
vn 0.003720 0.009777 -0.999945
vn -0.003649 0.834308 -0.551287
vn 0.003649 0.834308 -0.551287
vn 0.381568 0.006283 -0.924319
vn 0.381568 -0.006283 -0.924319
vn 0.003720 -0.009777 -0.999945
vn 0.924321 0.006283 -0.381565
vn 0.924321 -0.006283 -0.381565
vn -0.003649 -0.834305 -0.551291
vn 0.003649 -0.834305 -0.551291
vn -0.002183 -0.250955 -0.967996
vn 0.002183 -0.250955 -0.967996
vn 0.000000 1.000000 0.000000
vn 0.000000 1.000000 0.000000
vn 0.000000 1.000000 0.000000
vn 0.000000 1.000000 0.000000
vn -0.917921 -0.210603 0.336255
vn -0.450692 -0.770557 0.450687
vn -0.336258 -0.210603 0.917920
vn 0.450690 -0.770559 0.450686
vn 0.917920 -0.210598 0.336260
vn 0.336259 -0.210604 0.917920
vn -0.450693 0.770556 0.450689
vn -0.917921 0.210602 0.336256
vn -0.336259 0.210601 0.917920
vn 0.917921 0.210595 0.336261
vn 0.450692 0.770556 0.450688
vn 0.336260 0.210602 0.917919
vn -0.336254 0.210601 -0.917922
vn -0.917921 0.210600 -0.336257
vn -0.450691 0.770556 -0.450690
vn 0.917920 0.210597 -0.336261
vn 0.336254 0.210602 -0.917922
vn 0.450692 0.770555 -0.450690
vn -0.450689 -0.770558 -0.450688
vn -0.917921 -0.210601 -0.336255
vn -0.336251 -0.210602 -0.917923
vn 0.917920 -0.210599 -0.336259
vn 0.450690 -0.770556 -0.450690
vn 0.336254 -0.210603 -0.917921
vn 0.000000 0.019376 -0.999812
vn 0.000000 0.019376 -0.999812
vn 0.000000 0.019376 -0.999812
vn 0.000000 0.019376 -0.999812
vn -0.999559 0.029702 0.000000
vn -0.999559 0.029702 0.000000
vn -0.999559 0.029702 0.000000
vn -0.999559 0.029702 0.000000
vn 0.000000 0.019376 0.999812
vn 0.000000 0.019376 0.999812
vn 0.000000 0.019376 0.999812
vn 0.000000 0.019376 0.999812
vn 0.999559 0.029702 0.000000
vn 0.999559 0.029702 0.000000
vn 0.999559 0.029702 0.000000
vn 0.999559 0.029702 0.000000
s 1
g polySurface1 Bottom_dumpster1
usemtl initialShadingGroup
f 2/1/1 1/2/2 37/3/3 42/4/4
s 2
f 1/101/5 6/102/6 38/103/7 37/104/8
s 3
f 4/81/9 3/82/10 11/83/11 10/84/12
s 1
f 3/63/13 2/64/1 12/65/14 11/66/15
s 2
f 6/6/6 5/16/16 15/17/17 14/18/18
s 3
f 5/16/19 4/9/9 16/19/20 15/17/21
s 4
f 8/105/22 7/106/23 43/107/24 48/108/25
s 1
f 7/24/26 12/14/14 44/25/27 43/26/28
s 3
f 10/12/12 9/27/29 23/28/30 22/29/31
s 4
f 9/27/32 8/20/22 24/30/33 23/28/34
s 2
f 14/109/18 13/110/35 27/111/36 26/112/37
s 5
f 13/34/38 18/35/39 28/36/40 27/37/41
f 18/125/39 17/126/42 21/127/43 20/128/44
s 3
f 17/38/45 16/19/20 22/29/31 21/39/46
s 5
f 20/40/44 19/41/47 35/42/48 34/43/49
s 4
f 19/113/50 24/114/33 36/115/51 35/116/52
s 2
f 26/33/37 25/47/53 39/48/54 38/7/7
s 6
f 25/49/55 30/50/56 40/51/57 39/52/58
f 30/50/56 29/53/59 33/54/60 32/55/61
s 5
f 29/129/62 28/130/40 34/131/49 33/132/63
s 6
f 32/55/61 31/56/64 47/57/65 46/58/66
s 4
f 31/59/67 36/45/51 48/23/25 47/60/68
s 1
f 42/133/4 41/134/69 45/135/70 44/136/27
s 6
f 41/85/71 40/86/57 46/87/66 45/88/72
s 3
f 4/81/9 10/84/12 22/89/31 16/90/20
s off
f 58/137/73 57/138/74 59/139/75 60/140/76
s 6
f 30/91/56 32/92/61 46/87/66 40/86/57
s 1
f 42/133/4 44/136/27 12/65/14 2/64/1
s 4
f 8/105/22 48/108/25 36/115/51 24/114/33
s 2
f 38/103/7 6/102/6 14/109/18 26/112/37
f 5/16/16 6/6/6 1/5/5 49/67/77
s 1
f 1/2/2 2/1/1 3/13/13 49/68/78
s 3
f 3/10/10 4/9/9 5/16/19 49/67/79
s 1
f 11/15/15 12/14/14 7/24/26 50/69/80
s 4
f 7/21/23 8/20/22 9/27/32 50/70/81
s 3
f 9/27/29 10/12/12 11/11/11 50/70/82
s 5
f 17/38/42 18/35/39 13/34/38 51/71/83
s 2
f 13/31/35 14/18/18 15/17/17 51/71/84
s 3
f 15/17/21 16/19/20 17/38/45 51/71/85
s 4
f 23/28/34 24/30/33 19/44/50 52/72/86
s 5
f 19/41/47 20/40/44 21/39/43 52/72/87
s 3
f 21/39/46 22/29/31 23/28/30 52/72/88
s 6
f 29/53/59 30/50/56 25/49/55 53/73/89
s 2
f 25/47/53 26/33/37 27/32/36 53/74/90
s 5
f 27/37/41 28/36/40 29/53/62 53/73/91
s 4
f 35/46/52 36/45/51 31/59/67 54/75/92
s 6
f 31/56/64 32/55/61 33/54/60 54/76/93
s 5
f 33/54/63 34/43/49 35/42/48 54/76/94
s 1
f 41/61/69 42/4/4 37/3/3 55/77/95
s 2
f 37/8/8 38/7/7 39/48/54 55/78/96
s 6
f 39/52/58 40/51/57 41/61/71 55/77/97
s 4
f 47/60/68 48/23/25 43/22/24 56/79/98
s 1
f 43/26/28 44/25/27 45/62/70 56/80/99
s 6
f 45/62/72 46/58/66 47/57/65 56/80/100
s off
f 18/93/101 20/94/102 57/95/103 58/96/104
f 20/117/105 34/118/106 59/119/107 57/120/108
f 34/97/109 28/98/110 60/99/111 59/100/112
f 28/121/113 18/122/114 58/123/115 60/124/116
