# This file uses centimeters as units for non-parametric coordinates.

mtllib Wall_GRP.mtl
g default
v -0.250000 0.000000 0.000000
v 0.000000 0.000000 0.000000
v -0.250000 0.509998 0.000000
v 0.000000 0.509998 0.000000
v -0.250000 0.509998 -3.019973
v 0.000000 0.509998 -3.019973
v -0.250000 0.000000 -3.019973
v 0.000000 0.000000 -3.019973
vt 0.068726 0.940173
vt 0.068726 0.970437
vt 0.068726 0.848172
vt 0.068726 0.878436
vt 0.434305 0.848172
vt 0.434305 0.878436
vt 0.434305 0.786435
vt 0.434305 0.940173
vt 0.496058 0.848172
vt 0.434305 0.970437
vt 0.007004 0.848172
vt 0.068726 0.786435
vt 0.496058 0.878436
vt 0.007004 0.878436
vn 0.000000 0.000000 1.000000
vn 0.000000 0.000000 1.000000
vn 0.000000 0.000000 1.000000
vn 0.000000 0.000000 1.000000
vn 0.000000 1.000000 0.000000
vn 0.000000 1.000000 0.000000
vn 0.000000 1.000000 0.000000
vn 0.000000 1.000000 0.000000
vn 0.000000 0.000000 -1.000000
vn 0.000000 0.000000 -1.000000
vn 0.000000 0.000000 -1.000000
vn 0.000000 0.000000 -1.000000
vn 0.000000 -1.000000 0.000000
vn 0.000000 -1.000000 0.000000
vn 0.000000 -1.000000 0.000000
vn 0.000000 -1.000000 0.000000
vn 1.000000 0.000000 0.000000
vn 1.000000 0.000000 0.000000
vn 1.000000 0.000000 0.000000
vn 1.000000 0.000000 0.000000
vn -1.000000 0.000000 0.000000
vn -1.000000 0.000000 0.000000
vn -1.000000 0.000000 0.000000
vn -1.000000 0.000000 0.000000
s off
g Plank Wall1_GRP
usemtl lambert14SG
f 1/14/1 2/11/2 4/3/3 3/4/4
f 3/4/5 4/3/6 6/5/7 5/6/8
f 5/6/9 6/5/10 8/9/11 7/13/12
f 7/8/13 8/10/14 2/2/15 1/1/16
f 2/12/17 8/7/18 6/5/19 4/3/20
f 7/8/21 1/1/22 3/4/23 5/6/24
g default
v 0.000000 2.850000 -0.000000
v 0.000000 0.000000 -0.000000
v 0.000000 2.850000 -3.020301
v 0.000000 0.000000 -3.020301
v 0.000000 2.128072 -3.020301
v 0.000000 2.128072 -0.000000
v 0.000000 0.999534 -3.020301
v 0.000000 0.999534 -0.000000
v 0.000000 2.850000 -2.567877
v 0.000000 2.128072 -2.567877
v 0.000000 0.999534 -2.567877
v 0.000000 0.000000 -2.567877
v 0.000000 2.850000 -0.452709
v 0.000000 2.128072 -0.452709
v 0.000000 0.999534 -0.452709
v 0.000000 0.000000 -0.452709
vt 0.004173 0.492758
vt 0.004173 0.001104
vt 0.495827 0.492758
vt 0.495827 0.001104
vt 0.495827 0.369844
vt 0.004173 0.369844
vt 0.495827 0.173183
vt 0.004173 0.173183
vt 0.422079 0.492758
vt 0.422079 0.369844
vt 0.422079 0.173183
vt 0.422079 0.001104
vt 0.077921 0.492758
vt 0.077921 0.369844
vt 0.077921 0.173183
vt 0.077921 0.001104
vn 1.000000 0.000000 0.000000
vn 1.000000 0.000000 0.000000
vn 1.000000 0.000000 0.000000
vn 1.000000 0.000000 0.000000
vn 1.000000 0.000000 0.000000
vn 1.000000 0.000000 0.000000
vn 1.000000 0.000000 0.000000
vn 1.000000 0.000000 0.000000
vn 1.000000 0.000000 0.000000
vn 1.000000 0.000000 0.000000
vn 1.000000 0.000000 0.000000
vn 1.000000 0.000000 0.000000
vn 1.000000 0.000000 0.000000
vn 1.000000 0.000000 0.000000
vn 1.000000 0.000000 0.000000
vn 1.000000 0.000000 0.000000
s 1
g Wall1_GRP Wall_Window
usemtl lambert14SG
f 12/18/25 15/21/26 19/25/27 20/26/28
f 17/23/29 18/24/30 13/19/31 11/17/32
f 18/24/30 19/25/27 15/21/26 13/19/31
f 21/27/33 22/28/34 18/24/30 17/23/29
f 20/26/28 19/25/27 23/29/35 24/30/36
f 14/20/37 22/28/34 21/27/33 9/15/38
f 16/22/39 23/29/35 22/28/34 14/20/37
f 24/30/36 23/29/35 16/22/39 10/16/40
g default
v 0.000000 2.850000 -0.000000
v 0.000000 0.000000 -0.000000
v 0.000000 2.850000 -3.020301
v 0.000000 0.000000 -3.020301
v 0.000000 2.128072 -3.020301
v 0.000000 2.128072 -0.000000
v 0.000000 0.999534 -3.020301
v 0.000000 0.999534 -0.000000
v 0.000000 2.850000 -2.359838
v 0.000000 2.128072 -2.359838
v 0.000000 0.999534 -2.359838
v 0.000000 0.000000 -2.359838
v 0.000000 2.850000 -0.660748
v 0.000000 2.128072 -0.660747
v 0.000000 0.999534 -0.660747
v 0.000000 0.000000 -0.660748
v 0.000000 2.128072 -1.748854
v 0.000000 2.850000 -1.748854
v 0.000000 2.850000 -1.279976
v 0.000000 2.128072 -1.279976
v 0.000000 0.999534 -1.279976
v 0.000000 0.000000 -1.279976
v 0.000000 0.999534 -1.748854
v 0.000000 0.000000 -1.748854
vt 0.504173 0.492758
vt 0.504173 0.001104
vt 0.995827 0.492758
vt 0.995827 0.001104
vt 0.995827 0.345262
vt 0.504173 0.345262
vt 0.995827 0.148600
vt 0.504173 0.148600
vt 0.873385 0.492758
vt 0.873385 0.345262
vt 0.873385 0.148600
vt 0.873385 0.001104
vt 0.632990 0.492758
vt 0.632990 0.345262
vt 0.632990 0.148600
vt 0.632990 0.001104
vt 0.785382 0.345262
vt 0.785382 0.492758
vt 0.718196 0.492758
vt 0.718196 0.345262
vt 0.719514 0.148600
vt 0.719514 0.001104
vt 0.788211 0.148600
vt 0.788210 0.001104
vn 1.000000 0.000000 0.000000
vn 1.000000 0.000000 0.000000
vn 1.000000 0.000000 0.000000
vn 1.000000 0.000000 0.000000
vn 1.000000 0.000000 0.000000
vn 1.000000 0.000000 0.000000
vn 1.000000 0.000000 0.000000
vn 1.000000 0.000000 0.000000
vn 1.000000 0.000000 0.000000
vn 1.000000 0.000000 0.000000
vn 1.000000 0.000000 0.000000
vn 1.000000 0.000000 0.000000
vn 1.000000 0.000000 0.000000
vn 1.000000 0.000000 0.000000
vn 1.000000 0.000000 0.000000
vn 1.000000 0.000000 0.000000
vn 1.000000 0.000000 0.000000
vn 1.000000 0.000000 0.000000
vn 1.000000 0.000000 0.000000
vn 1.000000 0.000000 0.000000
vn 1.000000 0.000000 0.000000
vn 1.000000 0.000000 0.000000
vn 1.000000 0.000000 0.000000
vn 1.000000 0.000000 0.000000
vn 1.000000 0.000000 0.000000
vn 1.000000 0.000000 0.000000
vn 1.000000 0.000000 0.000000
vn 1.000000 0.000000 0.000000
s 1
g Wall1_GRP Wall_Window2
usemtl lambert14SG
f 28/34/41 31/37/42 35/41/43 36/42/44
f 33/39/45 34/40/46 29/35/47 27/33/48
f 34/40/46 35/41/43 31/37/42 29/35/47
f 43/49/49 44/50/50 41/47/51 42/48/52
f 36/42/44 35/41/43 47/53/53 48/54/54
f 30/36/55 38/44/56 37/43/57 25/31/58
f 32/38/59 39/45/60 38/44/56 30/36/55
f 40/46/61 39/45/60 32/38/59 26/32/62
f 42/48/52 41/47/51 34/40/46 33/39/45
f 37/43/57 38/44/56 44/50/50 43/49/49
f 46/52/63 45/51/64 39/45/60 40/46/61
f 48/54/54 47/53/53 45/51/64 46/52/63
s off
f 41/47/65 44/50/66 45/51/67 47/53/68
g default
v 0.055316 0.511929 -0.450936
v 0.055316 0.511929 -0.540255
v -0.055316 0.511929 -0.450936
v -0.055316 0.511929 -0.540255
v -0.055316 -0.511929 -0.450936
v -0.055316 -0.511929 -0.540255
v 0.055316 -0.511929 -0.450936
v 0.055316 -0.511929 -0.540255
v -0.055316 0.511929 0.540255
v -0.055316 0.511929 0.450936
v 0.055316 0.511929 0.540255
v 0.055316 0.511929 0.450936
v 0.055316 -0.511929 0.450936
v 0.055316 -0.511929 0.540255
v -0.055316 -0.511929 0.540255
v -0.055316 -0.511929 0.450936
v -0.055316 -0.076023 0.540255
v -0.055316 0.076023 0.540255
v 0.055316 0.076023 0.540255
v 0.055316 -0.076023 0.540255
v 0.055316 0.076023 0.450936
v 0.055316 -0.076023 0.450936
v -0.055316 0.076023 0.450936
v -0.055316 -0.076023 0.450936
v 0.055316 -0.076023 -0.540255
v 0.055316 0.076023 -0.540255
v -0.055316 0.076023 -0.540255
v -0.055316 -0.076023 -0.540255
v -0.055316 0.076023 -0.450936
v -0.055316 -0.076023 -0.450936
v 0.055316 0.076023 -0.450936
v 0.055316 -0.076023 -0.450936
vt 0.049286 0.617416
vt 0.317415 0.654873
vt 0.317415 0.616408
vt 0.049286 0.653865
vt 0.345404 0.616408
vt 0.345404 0.654873
vt 0.070698 0.653865
vt 0.070698 0.617416
vt 0.345404 0.654873
vt 0.049286 0.653865
vt 0.345404 0.616408
vt 0.049286 0.617416
vt 0.317415 0.616408
vt 0.070698 0.617416
vt 0.317415 0.654873
vt 0.070698 0.653865
vt 0.308306 0.617416
vt 0.308306 0.653865
vt 0.182951 0.770696
vt 0.154963 0.770696
vt 0.286894 0.653865
vt 0.286894 0.617416
vt 0.382311 0.765150
vt 0.350537 0.765150
vt 0.308306 0.653865
vt 0.308306 0.617416
vt 0.154963 0.660419
vt 0.182951 0.660419
vt 0.286894 0.617416
vt 0.286894 0.653865
vt 0.350537 0.506130
vt 0.382311 0.506130
vt 0.308306 0.758360
vt 0.286894 0.758360
vt 0.317415 0.765150
vt 0.350537 0.765150
vt 0.286894 0.758360
vt 0.308306 0.758360
vt 0.345404 0.765150
vt 0.154963 0.770696
vt 0.049286 0.758360
vt 0.070698 0.758360
vt 0.182951 0.770696
vt 0.382311 0.765150
vt 0.070698 0.758360
vt 0.049286 0.758360
vt 0.182951 0.660419
vt 0.154963 0.660419
vt 0.345404 0.765150
vt 0.317415 0.765150
vt 0.049286 0.512921
vt 0.070698 0.512921
vt 0.382311 0.506130
vt 0.317415 0.506130
vt 0.070698 0.512921
vt 0.049286 0.512921
vt 0.345404 0.506130
vt 0.154963 0.610862
vt 0.308306 0.512921
vt 0.286894 0.512921
vt 0.350537 0.506130
vt 0.182951 0.610862
vt 0.286894 0.512921
vt 0.308306 0.512921
vt 0.182951 0.500585
vt 0.154963 0.500585
vt 0.345404 0.506130
vt 0.317415 0.506130
vt 0.182951 0.610862
vt 0.154963 0.610862
vt 0.154963 0.500585
vt 0.182951 0.500585
vn -1.000000 0.000000 0.000000
vn -1.000000 0.000000 0.000000
vn -1.000000 0.000000 0.000000
vn -1.000000 0.000000 0.000000
vn 0.000000 0.000000 1.000000
vn 0.000000 0.000000 1.000000
vn 0.000000 0.000000 1.000000
vn 0.000000 0.000000 1.000000
vn 1.000000 0.000000 0.000000
vn 1.000000 0.000000 0.000000
vn 1.000000 0.000000 0.000000
vn 1.000000 0.000000 0.000000
vn 1.000000 0.000000 0.000000
vn 1.000000 0.000000 0.000000
vn 1.000000 0.000000 0.000000
vn 1.000000 0.000000 0.000000
vn 0.000000 0.000000 -1.000000
vn 0.000000 0.000000 -1.000000
vn 0.000000 0.000000 -1.000000
vn 0.000000 0.000000 -1.000000
vn -1.000000 0.000000 0.000000
vn -1.000000 0.000000 0.000000
vn -1.000000 0.000000 0.000000
vn -1.000000 0.000000 0.000000
vn 1.000000 0.000000 0.000000
vn 1.000000 0.000000 0.000000
vn 0.000000 0.000000 1.000000
vn 0.000000 0.000000 1.000000
vn 0.000000 0.000000 1.000000
vn 0.000000 0.000000 1.000000
vn -1.000000 0.000000 0.000000
vn -1.000000 0.000000 0.000000
vn 0.000000 0.000000 -1.000000
vn 0.000000 0.000000 -1.000000
vn -1.000000 0.000000 0.000000
vn -1.000000 0.000000 0.000000
vn 0.000000 0.000000 -1.000000
vn 0.000000 0.000000 -1.000000
vn 0.000000 0.000000 -1.000000
vn 0.000000 0.000000 -1.000000
vn 1.000000 0.000000 0.000000
vn 1.000000 0.000000 0.000000
vn 0.000000 0.000000 1.000000
vn 0.000000 0.000000 1.000000
vn 0.000000 0.000000 1.000000
vn 0.000000 0.000000 1.000000
vn 1.000000 0.000000 0.000000
vn 1.000000 0.000000 0.000000
vn 0.000000 0.000000 -1.000000
vn 0.000000 0.000000 -1.000000
vn 0.000000 0.000000 -1.000000
vn 0.000000 0.000000 -1.000000
vn -1.000000 0.000000 0.000000
vn -1.000000 0.000000 0.000000
vn 0.000000 0.000000 -1.000000
vn 0.000000 0.000000 -1.000000
vn -1.000000 0.000000 0.000000
vn -1.000000 0.000000 0.000000
vn 0.000000 0.000000 1.000000
vn 0.000000 0.000000 1.000000
vn 0.000000 0.000000 1.000000
vn 0.000000 0.000000 1.000000
vn 1.000000 0.000000 0.000000
vn 1.000000 0.000000 0.000000
vn 0.000000 1.000000 0.000000
vn 0.000000 1.000000 0.000000
vn 0.000000 1.000000 0.000000
vn 0.000000 1.000000 0.000000
vn 1.000000 0.000000 0.000000
vn 1.000000 0.000000 0.000000
vn 1.000000 0.000000 0.000000
vn 1.000000 0.000000 0.000000
vn 0.000000 -1.000000 0.000000
vn 0.000000 -1.000000 0.000000
vn 0.000000 -1.000000 0.000000
vn 0.000000 -1.000000 0.000000
vn -1.000000 0.000000 0.000000
vn -1.000000 0.000000 0.000000
vn -1.000000 0.000000 0.000000
vn -1.000000 0.000000 0.000000
s 1
g Wall1_GRP LadderRung
usemtl lambert14SG
f 65/55/69 66/58/70 71/61/71 72/62/72
s 2
f 66/56/73 65/57/74 68/59/75 67/60/76
s 3
f 67/64/77 68/66/78 70/68/79 69/70/80
s 4
f 73/71/81 74/72/82 79/75/83 80/76/84
s 5
f 74/63/85 73/65/86 76/67/87 75/69/88
s 6
f 75/79/89 76/80/90 78/83/91 77/84/92
s 4
f 50/87/93 49/88/94 79/75/83 74/72/82
s off
f 49/73/95 51/74/96 77/81/97 79/82/98
s 6
f 51/91/99 52/92/100 75/79/89 77/84/92
s 5
f 52/89/101 50/93/102 74/63/85 75/69/88
s 1
f 57/95/103 58/96/104 71/61/71 66/58/70
s off
f 58/94/105 60/97/106 69/101/107 71/102/108
s 3
f 60/99/109 59/100/110 67/64/77 69/70/80
s 2
f 59/103/111 57/104/112 66/56/73 67/60/76
f 68/59/75 65/57/74 63/108/113 62/111/114
s 3
f 70/68/79 68/66/78 62/105/115 61/106/116
s off
f 72/112/117 70/116/118 61/119/119 64/120/120
s 1
f 65/55/69 72/62/72 64/109/121 63/110/122
s 5
f 76/67/87 73/65/86 56/121/123 54/122/124
s 6
f 78/83/91 76/80/90 54/113/125 53/114/126
s off
f 80/123/127 78/124/128 53/125/129 55/126/130
s 4
f 73/71/81 80/76/84 55/117/131 56/118/132
s off
f 79/77/133 77/78/134 71/85/135 69/86/136
f 80/76/137 79/75/138 69/70/139 70/68/140
f 78/90/141 80/98/142 70/107/143 72/115/144
f 78/83/145 72/62/146 71/61/147 77/84/148
g default
v 0.000000 2.849981 0.000000
v 0.000000 0.000000 0.000000
v 0.000000 2.849981 -3.020300
v 0.000000 0.000000 -3.020300
vt 0.504173 0.996931
vt 0.504173 0.505278
vt 0.995827 0.996931
vt 0.995827 0.505278
vn 1.000000 0.000000 0.000000
vn 1.000000 0.000000 0.000000
vn 1.000000 0.000000 0.000000
vn 1.000000 0.000000 0.000000
s off
g Wall1_GRP Wall
usemtl lambert14SG
f 84/130/149 83/129/150 81/127/151 82/128/152
